REM DIRINDEX 1\6,1\2\7,1\2\8,1\2\9,1\3\10,1\3\11,1\4\12,1\4\13,1\4\14,1\5\15,1\5\16,1\5\17
REM DIRNAME cjc040,folder01,folder02,folder03,folder04,folder05,folder06,folder07,folder08,folder09,folder10,folder11,folder12,folder13,folder14,folder15,folder16
TITLE ""
FILE "P2Q_t_0054-0071.mp3" MP3
  TRACK 01 AUDIO
    TITLE "10:cjc040_1756"
    INDEX 01 00:00:00
  TRACK 02 AUDIO
    TITLE "0:"
    INDEX 01 00:00:68
  TRACK 03 AUDIO
    TITLE "11:cjc040_1757"
    INDEX 01 00:01:54
  TRACK 04 AUDIO
    TITLE "0:"
    INDEX 01 00:03:06
  TRACK 05 AUDIO
    TITLE "10:cjc040_1758"
    INDEX 01 00:03:55
  TRACK 06 AUDIO
    TITLE "0:"
    INDEX 01 00:04:68
  TRACK 07 AUDIO
    TITLE "11:cjc040_1759"
    INDEX 01 00:05:46
  TRACK 08 AUDIO
    TITLE "0:"
    INDEX 01 00:08:28
  TRACK 09 AUDIO
    TITLE "10:cjc040_1760"
    INDEX 01 00:09:08
  TRACK 10 AUDIO
    TITLE "0:"
    INDEX 01 00:10:27
  TRACK 11 AUDIO
    TITLE "11:cjc040_1761"
    INDEX 01 00:11:11
  TRACK 12 AUDIO
    TITLE "0:"
    INDEX 01 00:14:15
  TRACK 13 AUDIO
    TITLE "10:cjc040_1762"
    INDEX 01 00:14:64
  TRACK 14 AUDIO
    TITLE "0:"
    INDEX 01 00:16:08
  TRACK 15 AUDIO
    TITLE "11:cjc040_1763"
    INDEX 01 00:16:63
  TRACK 16 AUDIO
    TITLE "0:"
    INDEX 01 00:18:05
  TRACK 17 AUDIO
    TITLE "10:cjc040_1764"
    INDEX 01 00:18:62
  TRACK 18 AUDIO
    TITLE "0:"
    INDEX 01 00:19:71
  TRACK 19 AUDIO
    TITLE "11:cjc040_1765"
    INDEX 01 00:20:51
  TRACK 20 AUDIO
    TITLE "0:"
    INDEX 01 00:21:51
  TRACK 21 AUDIO
    TITLE "10:cjc040_1766"
    INDEX 01 00:22:29
  TRACK 22 AUDIO
    TITLE "0:"
    INDEX 01 00:23:59
  TRACK 23 AUDIO
    TITLE "11:cjc040_1767"
    INDEX 01 00:24:37
  TRACK 24 AUDIO
    TITLE "0:"
    INDEX 01 00:27:20
  TRACK 25 AUDIO
    TITLE "10:cjc040_1768"
    INDEX 01 00:27:73
  TRACK 26 AUDIO
    TITLE "0:"
    INDEX 01 00:29:11
  TRACK 27 AUDIO
    TITLE "11:cjc040_1769"
    INDEX 01 00:29:70
  TRACK 28 AUDIO
    TITLE "0:"
    INDEX 01 00:31:18
  TRACK 29 AUDIO
    TITLE "10:cjc040_1770"
    INDEX 01 00:31:73
  TRACK 30 AUDIO
    TITLE "0:"
    INDEX 01 00:33:11
  TRACK 31 AUDIO
    TITLE "11:cjc040_1771"
    INDEX 01 00:33:64
  TRACK 32 AUDIO
    TITLE "0:"
    INDEX 01 00:36:62
  TRACK 33 AUDIO
    TITLE "10:cjc040_1772"
    INDEX 01 00:37:40
  TRACK 34 AUDIO
    TITLE "0:"
    INDEX 01 00:38:47
  TRACK 35 AUDIO
    TITLE "11:cjc040_1773"
    INDEX 01 00:39:33
  TRACK 36 AUDIO
    TITLE "0:"
    INDEX 01 00:42:23
  TRACK 37 AUDIO
    TITLE "10:cjc040_1774"
    INDEX 01 00:42:72
  TRACK 38 AUDIO
    TITLE "0:"
    INDEX 01 00:44:26
  TRACK 39 AUDIO
    TITLE "11:cjc040_1775"
    INDEX 01 00:45:04
  TRACK 40 AUDIO
    TITLE "0:"
    INDEX 01 00:46:29
  TRACK 41 AUDIO
    TITLE "10:cjc040_1776"
    INDEX 01 00:47:11
  TRACK 42 AUDIO
    TITLE "0:"
    INDEX 01 00:48:12
  TRACK 43 AUDIO
    TITLE "11:cjc040_1777"
    INDEX 01 00:48:65
  TRACK 44 AUDIO
    TITLE "0:"
    INDEX 01 00:51:20
  TRACK 45 AUDIO
    TITLE "10:cjc040_1778"
    INDEX 01 00:51:69
  TRACK 46 AUDIO
    TITLE "0:"
    INDEX 01 00:53:15
  TRACK 47 AUDIO
    TITLE "11:cjc040_1779"
    INDEX 01 00:53:68
  TRACK 48 AUDIO
    TITLE "0:"
    INDEX 01 00:56:47
  TRACK 49 AUDIO
    TITLE "10:cjc040_1780"
    INDEX 01 00:57:27
  TRACK 50 AUDIO
    TITLE "0:"
    INDEX 01 00:58:38
  TRACK 51 AUDIO
    TITLE "11:cjc040_1781"
    INDEX 01 00:59:22
  TRACK 52 AUDIO
    TITLE "0:"
    INDEX 01 01:03:47
  TRACK 53 AUDIO
    TITLE "10:cjc040_1782"
    INDEX 01 01:04:31
  TRACK 54 AUDIO
    TITLE "0:"
    INDEX 01 01:05:42
  TRACK 55 AUDIO
    TITLE "11:cjc040_1783"
    INDEX 01 01:06:22
  TRACK 56 AUDIO
    TITLE "0:"
    INDEX 01 01:07:53
  TRACK 57 AUDIO
    TITLE "10:cjc040_1784"
    INDEX 01 01:08:33
  TRACK 58 AUDIO
    TITLE "0:"
    INDEX 01 01:09:50
  TRACK 59 AUDIO
    TITLE "11:cjc040_1785"
    INDEX 01 01:10:28
  TRACK 60 AUDIO
    TITLE "0:"
    INDEX 01 01:11:62
  TRACK 61 AUDIO
    TITLE "10:cjc040_1786"
    INDEX 01 01:12:42
  TRACK 62 AUDIO
    TITLE "0:"
    INDEX 01 01:13:65
  TRACK 63 AUDIO
    TITLE "11:cjc040_1787"
    INDEX 01 01:14:49
  TRACK 64 AUDIO
    TITLE "0:"
    INDEX 01 01:17:20
  TRACK 65 AUDIO
    TITLE "10:cjc040_1788"
    INDEX 01 01:18:00
  TRACK 66 AUDIO
    TITLE "0:"
    INDEX 01 01:19:11
  TRACK 67 AUDIO
    TITLE "11:cjc040_1789"
    INDEX 01 01:19:64
  TRACK 68 AUDIO
    TITLE "0:"
    INDEX 01 01:23:03
  TRACK 69 AUDIO
    TITLE "10:cjc040_1790"
    INDEX 01 01:23:54
  TRACK 70 AUDIO
    TITLE "0:"
    INDEX 01 01:24:65
  TRACK 71 AUDIO
    TITLE "11:cjc040_1791"
    INDEX 01 01:25:45
  TRACK 72 AUDIO
    TITLE "0:"
    INDEX 01 01:30:03
